<svg width="16" height="17" viewBox="0 0 16 17" fill="none" xmlns="http://www.w3.org/2000/svg">
  <g clip-path="url(#a)">
    <path d="m16.136 4.331-1.685-2.69a.83.83 0 0 0-.704-.39H3.253a.83.83 0 0 0-.704.39L.864 4.33c-.87 1.39-.1 3.322 1.527 3.543a2.57 2.57 0 0 0 2.273-.836 2.57 2.57 0 0 0 3.833 0 2.57 2.57 0 0 0 3.834 0 2.57 2.57 0 0 0 2.273.836c1.631-.218 2.405-2.15 1.532-3.543m-1.883 4.4c-.26 0-.517-.039-.766-.099v2.593H3.513V8.632a3.5 3.5 0 0 1-.766.099 4 4 0 0 1-.468-.031 3 3 0 0 1-.426-.094v5.112c0 .46.372.831.831.831h11.637a.83.83 0 0 0 .831-.831V8.606a2.6 2.6 0 0 1-.426.094c-.159.02-.314.031-.473.031" fill="#fff"/>
  </g>
  <defs>
    <clipPath id="a">
      <path fill="#fff" d="M0 .4h16v16H0z"/>
    </clipPath>
  </defs>
</svg>
