<svg width="21" height="21" viewBox="0 0 21 21" fill="none" xmlns="http://www.w3.org/2000/svg" version="1.1" xmlns:xlink="http://www.w3.org/1999/xlink" transform="matrix(-1,0,0,1,0,0)">
  <path d="M9.969 16.031a.65.65 0 0 1-.469.196.74.74 0 0 1-.508-.196L7.86 14.86a.56.56 0 0 1-.234-.468.63.63 0 0 1 .234-.508l3.399-3.438L7.86 7.009a.63.63 0 0 1-.234-.508q0-.293.234-.469L8.992 4.86a.74.74 0 0 1 .508-.195c.195 0 .352.078.469.195l5.078 5.079c.156.156.234.312.234.507 0 .196-.078.352-.234.508zm9.14-5.586c0-1.562-.351-3.008-1.132-4.297a8.56 8.56 0 0 0-3.125-3.125c-1.29-.78-2.735-1.132-4.297-1.132-1.563 0-3.008.351-4.297 1.132a8.56 8.56 0 0 0-3.125 3.125C2.352 7.438 2 8.883 2 10.445c0 1.563.352 3.008 1.133 4.297a8.56 8.56 0 0 0 3.125 3.125C7.547 18.648 8.992 19 10.555 19s3.008-.352 4.297-1.133a8.56 8.56 0 0 0 3.125-3.125c.78-1.289 1.132-2.734 1.132-4.297" fill="#fff" opacity=".75"></path>
</svg>