<svg width="25" height="25" viewBox="0 0 25 25" fill="none" xmlns="http://www.w3.org/2000/svg">
  <mask id="a" style="mask-type:alpha" maskUnits="userSpaceOnUse" x="0" y="0" width="25" height="25">
    <path fill="#fff" d="M.286.079h24v24h-24z"/>
  </mask>
  <g mask="url(#a)">
    <path d="M12.5 14.104 8.38 18.54q-.39.42-.995.42-.603 0-.994-.42Q6 18.121 6 17.47q0-.65.39-1.071l4.12-4.437-4.12-4.4Q6 7.143 6 6.493t.39-1.071T7.386 5t.995.42l4.12 4.438 4.085-4.437q.39-.42.994-.421.604 0 .995.42.426.46.426 1.09 0 .632-.426 1.053l-4.12 4.399 4.12 4.437q.39.42.39 1.07t-.39 1.072Q18.148 19 17.56 19a1.23 1.23 0 0 1-.976-.459z" fill="#fff"/>
  </g>
</svg>
