<svg width="24" height="26" viewBox="0 0 24 26" fill="none" xmlns="http://www.w3.org/2000/svg">
<path d="M22.1836 12.8222L13.1274 3.01635L12.5204 2.35873C12.382 2.20988 12.195 2.12634 12 2.12634C11.8051 2.12634 11.618 2.20988 11.4797 2.35873L1.81645 12.8222C1.67473 12.9751 1.56272 13.1573 1.48705 13.3579C1.41137 13.5585 1.37355 13.7735 1.37583 13.9902C1.3852 14.8839 2.07192 15.5974 2.89692 15.5974H3.89302V23.8671H20.1071V15.5974H21.1243C21.525 15.5974 21.9024 15.4273 22.186 15.1201C22.3256 14.9693 22.4363 14.79 22.5115 14.5925C22.5867 14.3951 22.6251 14.1835 22.6243 13.9699C22.6243 13.5382 22.4672 13.1294 22.1836 12.8222ZM13.3125 22.039H10.6875V16.8593H13.3125V22.039ZM18.4196 13.7693V22.039H14.8125V16.2499C14.8125 15.6888 14.393 15.2343 13.875 15.2343H10.125C9.60708 15.2343 9.18755 15.6888 9.18755 16.2499V22.039H5.58052V13.7693H3.33052L12.0024 4.38236L12.5438 4.96889L20.6719 13.7693H18.4196Z" fill="white"/>
</svg>
