<svg width="16" height="17" viewBox="0 0 16 17" fill="none" xmlns="http://www.w3.org/2000/svg">
  <g clip-path="url(#a)">
    <path d="m15.17 9.659 1.313-5.778a.667.667 0 0 0-.65-.814H4.923l-.255-1.245a.67.67 0 0 0-.653-.533H1.167a.667.667 0 0 0-.667.666V2.4c0 .368.298.667.667.667h1.94l1.952 9.54a1.554 1.554 0 0 0 .774 2.904 1.556 1.556 0 0 0 1.089-2.667h5.823a1.555 1.555 0 1 0 1.767-.29l.153-.673a.667.667 0 0 0-.65-.814H6.559l-.182-.89h8.143a.67.67 0 0 0 .65-.518" fill="#000"/>
  </g>
  <defs>
    <clipPath id="a">
      <path fill="#fff" d="M0 .9h16v16H0z"/>
    </clipPath>
  </defs>
</svg>
