<svg className="h-5 w-5" viewBox="0 0 22 21" fill="none" xmlns="http://www.w3.org/2000/svg">
  <path d="M20.63 14.822H6.673l.7-1.547 11.644-.023c.394 0 .731-.304.802-.726l1.612-9.778a.94.94 0 0 0-.175-.72.8.8 0 0 0-.28-.234.8.8 0 0 0-.344-.084L5.82 1.657l-.127-.645C5.613.6 5.271.3 4.882.3H1.261a.8.8 0 0 0-.585.263.94.94 0 0 0-.242.634c0 .238.087.466.242.634a.8.8 0 0 0 .585.262h2.95l.554 2.85 1.362 7.142-1.754 3.1a.95.95 0 0 0-.07.934.82.82 0 0 0 .738.493h1.472a2.75 2.75 0 0 0-.483 1.566c0 1.437 1.079 2.605 2.405 2.605 1.327 0 2.405-1.168 2.405-2.605 0-.566-.174-1.117-.483-1.566h3.776a2.75 2.75 0 0 0-.483 1.566c0 1.437 1.078 2.605 2.405 2.605s2.404-1.168 2.404-2.605c0-.566-.173-1.117-.482-1.566h2.655c.455 0 .827-.401.827-.897a.94.94 0 0 0-.244-.632.8.8 0 0 0-.585-.261M6.164 3.424l13.495.048-1.322 8.018-10.6.02zM8.435 18.98c-.408 0-.74-.36-.74-.803 0-.442.332-.802.74-.802s.74.36.74.802a.84.84 0 0 1-.216.568.7.7 0 0 1-.524.235m7.62 0c-.408 0-.74-.36-.74-.803 0-.442.332-.802.74-.802.407 0 .74.36.74.802a.84.84 0 0 1-.217.568.7.7 0 0 1-.523.235" fill="currentColor"/>
</svg>
