<svg width="24" height="26" viewBox="0 0 24 26" fill="none" xmlns="http://www.w3.org/2000/svg">
  <path d="M19.5 7.922h-3.187v-.406c0-2.58-1.932-4.672-4.313-4.672S7.688 4.936 7.688 7.516v.406H4.5c-.415 0-.75.363-.75.812v13.61c0 .45.335.812.75.812h15c.415 0 .75-.363.75-.812V8.734c0-.449-.335-.812-.75-.812M9.375 7.516c0-1.572 1.174-2.844 2.625-2.844 1.45 0 2.625 1.272 2.625 2.844v.406h-5.25zm9.188 13.812H5.438V9.75h2.25v2.234c0 .112.084.204.187.204h1.313c.103 0 .187-.092.187-.204V9.75h5.25v2.234c0 .112.084.204.188.204h1.312c.103 0 .188-.092.188-.204V9.75h2.25z" fill="#fff"/>
</svg>
