<svg width="25" height="29" viewBox="0 0 25 29" fill="none" xmlns="http://www.w3.org/2000/svg">
  <path d="M21.63 20.822H7.673l.701-1.547 11.644-.022c.394 0 .731-.305.802-.727l1.612-9.778a.94.94 0 0 0-.176-.72.8.8 0 0 0-.28-.234.8.8 0 0 0-.343-.084L6.82 7.657l-.126-.645c-.08-.412-.422-.711-.811-.711H2.262c-.22 0-.43.094-.585.262a.94.94 0 0 0-.243.634c0 .238.087.466.243.634a.8.8 0 0 0 .585.262h2.95l.554 2.85 1.361 7.142-1.753 3.1a.95.95 0 0 0-.07.934.82.82 0 0 0 .738.493h1.472a2.75 2.75 0 0 0-.483 1.566c0 1.437 1.078 2.605 2.405 2.605s2.405-1.168 2.405-2.605c0-.566-.174-1.117-.483-1.566h3.775a2.75 2.75 0 0 0-.482 1.566c0 1.437 1.078 2.605 2.404 2.605 1.327 0 2.405-1.168 2.405-2.605 0-.566-.173-1.117-.483-1.566h2.656c.454 0 .827-.401.827-.897a.94.94 0 0 0-.245-.632.8.8 0 0 0-.585-.261M7.165 9.424l13.495.048-1.322 8.018-10.6.02zm2.27 15.557c-.407 0-.74-.36-.74-.803 0-.442.333-.802.74-.802.409 0 .742.36.742.802a.84.84 0 0 1-.217.568.7.7 0 0 1-.524.235m7.62 0c-.407 0-.74-.36-.74-.803 0-.442.333-.802.74-.802.408 0 .741.36.741.802a.84.84 0 0 1-.217.568.7.7 0 0 1-.524.235" fill="#fff"/>
  <a>
    <path d="M0-4.364h3.404v20.727H0z"/>
  </a>
</svg>
