<svg width="16" height="17" viewBox="0 0 16 17" fill="none" xmlns="http://www.w3.org/2000/svg">
  <g clip-path="url(#a)">
    <path d="M8.5.65A7.75 7.75 0 0 0 .75 8.4a7.75 7.75 0 0 0 7.75 7.75 7.75 7.75 0 0 0 7.75-7.75A7.75 7.75 0 0 0 8.5.65m2.89 9.781-.625.781a.5.5 0 0 1-.703.079L7.97 9.737a1.25 1.25 0 0 1-.47-.977V3.9a.5.5 0 0 1 .5-.5h1a.5.5 0 0 1 .5.5v4.5l1.813 1.328a.5.5 0 0 1 .077.703" fill="#000"/>
  </g>
  <defs>
    <clipPath id="a">
      <path fill="#fff" d="M0 .9h16v16H0z"/>
    </clipPath>
  </defs>
</svg>
