<svg width="22" height="22" viewBox="0 0 22 22" fill="none" xmlns="http://www.w3.org/2000/svg">
<path d="M21.1829 10.8223L12.1267 1.01641L11.5196 0.358792C11.3813 0.209943 11.1943 0.126404 10.9993 0.126404C10.8044 0.126404 10.6173 0.209943 10.479 0.358792L0.815722 10.8223C0.673998 10.9752 0.561991 11.1573 0.486313 11.3579C0.410635 11.5585 0.372819 11.7735 0.375097 11.9902C0.384472 12.884 1.07119 13.5975 1.89619 13.5975H2.89228V21.8672H19.1063V13.5975H20.1235C20.5243 13.5975 20.9017 13.4273 21.1853 13.1201C21.3249 12.9693 21.4355 12.79 21.5108 12.5926C21.586 12.3952 21.6243 12.1835 21.6235 11.9699C21.6235 11.5383 21.4665 11.1295 21.1829 10.8223ZM12.3118 20.0391H9.68682V14.8594H12.3118V20.0391ZM17.4188 11.7693V20.0391H13.8118V14.25C13.8118 13.6889 13.3923 13.2344 12.8743 13.2344H9.12432C8.60635 13.2344 8.18682 13.6889 8.18682 14.25V20.0391H4.57978V11.7693H2.32978L11.0017 2.38242L11.5431 2.96895L19.6712 11.7693H17.4188Z" fill="black"/>
</svg>
