<svg width="18" height="18" viewBox="0 0 18 18" fill="none" xmlns="http://www.w3.org/2000/svg">
<path d="M10 18C9.71667 18 9.47917 17.9042 9.2875 17.7125C9.09583 17.5208 9 17.2833 9 17C9 16.7167 9.09583 16.4792 9.2875 16.2875C9.47917 16.0958 9.71667 16 10 16H16V2H10C9.71667 2 9.47917 1.90417 9.2875 1.7125C9.09583 1.52083 9 1.28333 9 1C9 0.716667 9.09583 0.479167 9.2875 0.2875C9.47917 0.0958333 9.71667 0 10 0H16C16.55 0 17.0208 0.195833 17.4125 0.5875C17.8042 0.979167 18 1.45 18 2V16C18 16.55 17.8042 17.0208 17.4125 17.4125C17.0208 17.8042 16.55 18 16 18H10ZM8.175 10H1C0.716667 10 0.479167 9.90417 0.2875 9.7125C0.0958333 9.52083 0 9.28333 0 9C0 8.71667 0.0958333 8.47917 0.2875 8.2875C0.479167 8.09583 0.716667 8 1 8H8.175L6.3 6.125C6.11667 5.94167 6.025 5.71667 6.025 5.45C6.025 5.18333 6.11667 4.95 6.3 4.75C6.48333 4.55 6.71667 4.44583 7 4.4375C7.28333 4.42917 7.525 4.525 7.725 4.725L11.3 8.3C11.5 8.5 11.6 8.73333 11.6 9C11.6 9.26667 11.5 9.5 11.3 9.7L7.725 13.275C7.525 13.475 7.2875 13.5708 7.0125 13.5625C6.7375 13.5542 6.5 13.45 6.3 13.25C6.11667 13.05 6.02917 12.8125 6.0375 12.5375C6.04583 12.2625 6.14167 12.0333 6.325 11.85L8.175 10Z" fill="black"/>
</svg>
