<svg width="18" height="22" viewBox="0 0 18 22" fill="none" xmlns="http://www.w3.org/2000/svg">
<path d="M16.5 5.92188H13.3125V5.51562C13.3125 2.93594 11.3813 0.84375 9 0.84375C6.61875 0.84375 4.6875 2.93594 4.6875 5.51562V5.92188H1.5C1.08516 5.92188 0.75 6.28496 0.75 6.73438V20.3438C0.75 20.7932 1.08516 21.1562 1.5 21.1562H16.5C16.9148 21.1562 17.25 20.7932 17.25 20.3438V6.73438C17.25 6.28496 16.9148 5.92188 16.5 5.92188ZM6.375 5.51562C6.375 3.94395 7.54922 2.67188 9 2.67188C10.4508 2.67188 11.625 3.94395 11.625 5.51562V5.92188H6.375V5.51562ZM15.5625 19.3281H2.4375V7.75H4.6875V9.98438C4.6875 10.0961 4.77187 10.1875 4.875 10.1875H6.1875C6.29063 10.1875 6.375 10.0961 6.375 9.98438V7.75H11.625V9.98438C11.625 10.0961 11.7094 10.1875 11.8125 10.1875H13.125C13.2281 10.1875 13.3125 10.0961 13.3125 9.98438V7.75H15.5625V19.3281Z" fill="black"/>
</svg>
