<svg width="22" height="21" viewBox="0 0 22 21" fill="none" xmlns="http://www.w3.org/2000/svg">
<path d="M20.6297 14.8217H6.67266L7.37344 13.2754L19.0172 13.2525C19.4109 13.2525 19.7484 12.9479 19.8188 12.5264L21.4313 2.74844C21.4734 2.49199 21.4102 2.22793 21.2555 2.02734C21.179 1.92863 21.0837 1.84911 20.976 1.7943C20.8683 1.7395 20.751 1.71072 20.632 1.70996L5.81953 1.65664L5.69297 1.01172C5.61328 0.600391 5.27109 0.300781 4.88203 0.300781H1.26094C1.04151 0.300781 0.831074 0.395211 0.675917 0.563298C0.52076 0.731385 0.433594 0.95936 0.433594 1.19707C0.433594 1.43478 0.52076 1.66276 0.675917 1.83084C0.831074 1.99893 1.04151 2.09336 1.26094 2.09336H4.21172L4.76484 4.94219L6.12656 12.0846L4.37344 15.1848C4.2824 15.3179 4.22756 15.476 4.21513 15.6411C4.20271 15.8062 4.23319 15.9718 4.30313 16.1191C4.44375 16.4213 4.72734 16.6117 5.04141 16.6117H6.51328C6.1995 17.0632 6.03001 17.6132 6.03047 18.1783C6.03047 19.6154 7.10859 20.7834 8.43516 20.7834C9.76172 20.7834 10.8398 19.6154 10.8398 18.1783C10.8398 17.6121 10.6664 17.0611 10.357 16.6117H14.1328C13.819 17.0632 13.6495 17.6132 13.65 18.1783C13.65 19.6154 14.7281 20.7834 16.0547 20.7834C17.3813 20.7834 18.4594 19.6154 18.4594 18.1783C18.4594 17.6121 18.2859 17.0611 17.9766 16.6117H20.632C21.0867 16.6117 21.4594 16.2105 21.4594 15.7154C21.458 15.478 21.37 15.2507 21.2146 15.0833C21.0591 14.9159 20.8489 14.8218 20.6297 14.8217ZM6.16406 3.42383L19.6594 3.47207L18.3375 11.4904L7.73672 11.5107L6.16406 3.42383ZM8.43516 18.9807C8.02734 18.9807 7.69453 18.6201 7.69453 18.1783C7.69453 17.7365 8.02734 17.376 8.43516 17.376C8.84297 17.376 9.17578 17.7365 9.17578 18.1783C9.17578 18.3911 9.09775 18.5952 8.95886 18.7457C8.81996 18.8961 8.63158 18.9807 8.43516 18.9807ZM16.0547 18.9807C15.6469 18.9807 15.3141 18.6201 15.3141 18.1783C15.3141 17.7365 15.6469 17.376 16.0547 17.376C16.4625 17.376 16.7953 17.7365 16.7953 18.1783C16.7953 18.3911 16.7173 18.5952 16.5784 18.7457C16.4395 18.8961 16.2511 18.9807 16.0547 18.9807Z" fill="black"/>
</svg>
